<svg width="25" height="25" viewBox="0 0 25 25" fill="none" xmlns="http://www.w3.org/2000/svg">
<path d="M7.10905 9.4012C6.58822 9.4012 6.14117 9.21457 5.7679 8.84131C5.39464 8.46805 5.20801 8.021 5.20801 7.50016C5.20801 6.97933 5.39464 6.53228 5.7679 6.15902C6.14117 5.78575 6.58822 5.59912 7.10905 5.59912C7.62988 5.59912 8.07693 5.78575 8.4502 6.15902C8.82346 6.53228 9.01009 6.97933 9.01009 7.50016C9.01009 8.021 8.82346 8.46805 8.4502 8.84131C8.07693 9.21457 7.62988 9.4012 7.10905 9.4012ZM4.84342 22.9168C4.51356 22.9168 4.23145 22.83 3.99707 22.6564C3.7627 22.4828 3.64551 22.2224 3.64551 21.8752C3.22884 21.8752 2.86426 21.7189 2.55176 21.4064C2.23926 21.0939 2.08301 20.7293 2.08301 20.3127V13.5418H5.20801V12.8127C5.20801 12.205 5.42502 11.6842 5.85905 11.2502C6.29308 10.8161 6.81391 10.5991 7.42155 10.5991C7.75141 10.5991 8.06391 10.6599 8.35905 10.7814C8.65419 10.9029 8.91461 11.0852 9.1403 11.3283L10.4945 12.8647C10.616 13.0036 10.7419 13.1295 10.8721 13.2424C11.0023 13.3552 11.1368 13.455 11.2757 13.5418H18.7497V4.84391C18.7497 4.51405 18.6412 4.23193 18.4242 3.99756C18.2071 3.76318 17.9337 3.646 17.6038 3.646C17.4302 3.646 17.2653 3.66336 17.109 3.69808C16.9528 3.7328 16.8139 3.81093 16.6924 3.93245L15.3382 5.28662C15.425 5.58176 15.438 5.88124 15.3773 6.18506C15.3165 6.48888 15.208 6.77968 15.0518 7.05746L12.3955 4.53141C12.6733 4.34044 12.9771 4.21891 13.307 4.16683C13.6368 4.11475 13.958 4.14947 14.2705 4.271L15.6247 2.94287C15.8851 2.68245 16.1846 2.47412 16.5231 2.31787C16.8617 2.16162 17.2219 2.0835 17.6038 2.0835C18.3677 2.0835 19.0101 2.35259 19.5309 2.89079C20.0518 3.42898 20.3122 4.08002 20.3122 4.84391V13.5418H22.9163V20.3127C22.9163 20.7293 22.7558 21.0939 22.4346 21.4064C22.1134 21.7189 21.7531 21.8752 21.3538 21.8752C21.3538 22.2224 21.2367 22.4828 21.0023 22.6564C20.7679 22.83 20.4771 22.9168 20.1299 22.9168H4.84342ZM3.64551 20.3127H21.3538V15.1043H3.64551V20.3127ZM21.3538 20.3127H3.64551H21.3538Z" fill="#071C35"/>
</svg>
