<svg width="25" height="25" viewBox="0 0 25 25" fill="none" xmlns="http://www.w3.org/2000/svg">
<path d="M2.08301 19.7918V13.1512C2.08301 12.7172 2.16981 12.3092 2.34342 11.9272C2.51704 11.5453 2.77745 11.2328 3.12467 10.9897V7.96891C3.12467 7.18766 3.38943 6.53228 3.91895 6.00277C4.44846 5.47325 5.10384 5.2085 5.88509 5.2085H10.5726C10.9545 5.2085 11.3104 5.2953 11.6403 5.46891C11.9702 5.64252 12.2566 5.8769 12.4997 6.17204C12.7427 5.8769 13.0248 5.64252 13.346 5.46891C13.6672 5.2953 14.0188 5.2085 14.4007 5.2085H19.0882C19.8695 5.2085 20.5292 5.47325 21.0674 6.00277C21.6056 6.53228 21.8747 7.18766 21.8747 7.96891V10.9897C22.2219 11.2328 22.4823 11.5453 22.6559 11.9272C22.8295 12.3092 22.9163 12.7172 22.9163 13.1512V19.7918H21.3538V17.7085H3.64551V19.7918H2.08301ZM13.2809 10.547H20.3122V7.96891C20.3122 7.62169 20.195 7.33523 19.9606 7.10954C19.7262 6.88384 19.4354 6.771 19.0882 6.771H14.3226C14.0275 6.771 13.7801 6.89252 13.5804 7.13558C13.3808 7.37863 13.2809 7.65641 13.2809 7.96891V10.547ZM4.68717 10.547H11.7184V7.96891C11.7184 7.65641 11.6186 7.37863 11.4189 7.13558C11.2193 6.89252 10.9719 6.771 10.6768 6.771H5.88509C5.55523 6.771 5.27311 6.88818 5.03874 7.12256C4.80436 7.35693 4.68717 7.63905 4.68717 7.96891V10.547ZM3.64551 16.146H21.3538V13.1512C21.3538 12.8561 21.254 12.6087 21.0544 12.409C20.8547 12.2094 20.6073 12.1095 20.3122 12.1095H4.68717C4.39204 12.1095 4.14464 12.2094 3.94499 12.409C3.74533 12.6087 3.64551 12.8561 3.64551 13.1512V16.146ZM21.3538 16.146H3.64551H21.3538Z" fill="#071C35"/>
</svg>
