<svg width="20" height="18" viewBox="0 0 20 18" fill="none" xmlns="http://www.w3.org/2000/svg">
<path d="M18.5723 0.0117548C18.2399 -0.0234953 17.8786 0.028411 17.5156 0.171911C17.0656 0.348911 10.0144 3.31507 3.44141 6.08207L1.26953 6.99613C0.428531 7.33713 0.00390625 7.89171 0.00390625 8.63871C0.00390625 9.16171 0.22525 9.8711 1.28125 10.2891L4.94727 11.7578C5.26427 12.7088 6.00055 14.9169 6.18555 15.5039C6.29555 15.8519 6.57339 16.7286 7.27539 16.9336C7.41939 16.9826 7.56966 17.0079 7.72266 17.0078C8.16566 17.0078 8.48462 16.8017 8.64062 16.6817L10.9707 14.711L13.8008 17.3282C13.9098 17.4392 14.4867 18 15.2617 18C16.2287 18 16.9622 17.1951 17.1152 16.4161C17.1982 15.9891 19.9277 2.2871 19.9277 2.2891C20.1727 1.1901 19.7322 0.619989 19.4492 0.376989C19.2067 0.169489 18.9046 0.0470048 18.5723 0.0117548ZM17.9102 2.17191C17.5332 4.06191 15.478 14.3783 15.166 15.8653L11.0293 12.0391L8.22266 14.4161L9 11.375C9 11.375 14.3625 5.9469 14.6855 5.6309C14.9455 5.3779 15 5.28921 15 5.20121C15 5.08421 14.9398 5.00004 14.8008 5.00004C14.6758 5.00004 14.506 5.11982 14.416 5.17582C13.2727 5.88863 8.40409 8.66228 6.00781 10.0254L2.53125 8.63675L4.21875 7.92777C8.51775 6.11777 16.1742 2.89391 17.9102 2.17191Z" fill="white"/>
</svg>
