<svg width="25" height="25" viewBox="0 0 25 25" fill="none" xmlns="http://www.w3.org/2000/svg">
<path d="M3.64551 18.75C3.22884 18.75 2.86426 18.5937 2.55176 18.2812C2.23926 17.9687 2.08301 17.6042 2.08301 17.1875V7.8125C2.08301 7.41319 2.23926 7.05295 2.55176 6.73177C2.86426 6.41059 3.22884 6.25 3.64551 6.25H21.3538C21.7705 6.25 22.1351 6.41059 22.4476 6.73177C22.7601 7.05295 22.9163 7.41319 22.9163 7.8125V17.1875C22.9163 17.6042 22.7601 17.9687 22.4476 18.2812C22.1351 18.5937 21.7705 18.75 21.3538 18.75H3.64551ZM3.64551 17.1875H21.3538V7.8125H17.9684V12.5H16.4059V7.8125H13.2809V12.5H11.7184V7.8125H8.59342V12.5H7.03092V7.8125H3.64551V17.1875ZM7.03092 12.5H8.59342H7.03092ZM11.7184 12.5H13.2809H11.7184ZM16.4059 12.5H17.9684H16.4059Z" fill="#071C35"/>
</svg>
