<svg width="20" height="20" viewBox="0 0 20 20" fill="none" xmlns="http://www.w3.org/2000/svg">
<g clip-path="url(#clip0_81_99)">
<path fill-rule="evenodd" clip-rule="evenodd" d="M9.4744 0.0113211C8.35712 0.125667 7.50464 0.322645 6.62596 0.669585C5.39799 1.15447 4.39933 1.79834 3.43497 2.72704C1.59472 4.49916 0.585518 6.7331 0.478401 9.27162C0.409302 10.9099 0.824012 12.6914 1.61014 14.1328C1.70447 14.3059 1.78167 14.4708 1.78163 14.4993C1.78163 14.5279 1.40668 15.6509 0.948414 16.9949C0.490182 18.3389 0.115234 19.4687 0.115234 19.5054C0.115234 19.5862 0.271569 19.74 0.353612 19.74C0.38605 19.74 1.56519 19.3755 2.97387 18.9299C4.38255 18.4843 5.56002 18.1197 5.59045 18.1197C5.62087 18.1197 5.84452 18.2137 6.08743 18.3286C6.8822 18.7044 7.87164 18.9996 8.83496 19.1483C9.46138 19.245 10.9599 19.2456 11.5865 19.1494C13.7152 18.8226 15.6211 17.8743 17.11 16.4011C18.0223 15.4985 18.7577 14.4043 19.2349 13.2396C19.5398 12.4954 19.7367 11.7604 19.8859 10.8092C19.9516 10.3904 19.9517 8.90193 19.8861 8.43664C19.5602 6.12515 18.525 4.1275 16.8536 2.58491C15.3922 1.23614 13.6202 0.395135 11.5865 0.0850442C11.1968 0.0256342 9.80835 -0.0228199 9.4744 0.0113211ZM11.4217 2.08884C13.7001 2.46933 15.667 3.79411 16.8513 5.74588C17.346 6.56123 17.7379 7.67322 17.8674 8.62953C17.9289 9.08352 17.9298 10.1581 17.869 10.597C17.7662 11.3383 17.4567 12.3386 17.1283 12.9907C16.3722 14.4919 15.0142 15.8064 13.5009 16.5019C12.4908 16.9662 11.5921 17.1801 10.482 17.2205C8.95715 17.276 7.53475 16.9141 6.24291 16.1421C6.05422 16.0293 5.87544 15.9497 5.81662 15.9522C5.76085 15.9546 5.14845 16.1367 4.45572 16.3568C3.76298 16.577 3.19179 16.754 3.1864 16.7503C3.18097 16.7466 3.35975 16.2015 3.58363 15.539C3.80747 14.8766 3.9904 14.2878 3.99005 14.2307C3.98966 14.1683 3.88762 13.9732 3.734 13.7411C3.02948 12.677 2.60861 11.4171 2.52013 10.1075C2.48336 9.56262 2.51548 8.82574 2.59559 8.37877C3.03429 5.93033 4.56318 3.89939 6.80035 2.79316C7.63443 2.38076 8.47129 2.14632 9.57129 2.01689C9.85292 1.98375 11.0776 2.03139 11.4217 2.08884ZM7.1879 5.1369C6.58581 5.23149 6.31562 5.34325 6.03224 5.61495C5.34075 6.27792 5.14198 7.58503 5.56328 8.69921C5.96392 9.75883 7.30935 11.502 8.42494 12.407C9.50843 13.286 10.7476 13.8685 12.1678 14.1664C12.5446 14.2454 13.2379 14.245 13.54 14.1656C14.1179 14.0137 14.8135 13.5155 15.0392 13.0918C15.2443 12.7068 15.3391 11.887 15.2078 11.6342C15.1573 11.5372 14.9988 11.4458 14.2486 11.0813C13.7543 10.8412 13.2335 10.5992 13.0913 10.5437C12.6166 10.3582 12.4983 10.4023 12.0815 10.9197C11.5841 11.5372 11.4952 11.6386 11.4523 11.6381C11.4302 11.6379 11.2764 11.5787 11.1106 11.5066C10.4771 11.2313 9.59202 10.551 8.95885 9.85283C8.68839 9.55463 8.25364 8.98507 8.25364 8.92898C8.25364 8.91022 8.37204 8.75873 8.51674 8.59231C8.88394 8.17002 9.00788 7.9337 9.00311 7.66508C8.99993 7.48592 8.93494 7.30271 8.58584 6.48844C8.35839 5.95799 8.12637 5.45767 8.07022 5.37662C7.89191 5.11938 7.67481 5.0604 7.1879 5.1369Z" fill="white"/>
</g>
<defs>
<clipPath id="clip0_81_99">
<rect width="20" height="20" fill="white"/>
</clipPath>
</defs>
</svg>
